<svg width="20" height="12" viewBox="0 0 20 12" fill="none" xmlns="http://www.w3.org/2000/svg">
<path d="M15.8869 10.9091V3.76857H17.108V4.84708H17.1937C17.3436 4.49378 17.615 4.2071 18.0077 3.98706C18.4005 3.76702 18.8432 3.657 19.3359 3.657C19.4287 3.657 19.5448 3.65855 19.684 3.66165C19.8233 3.66475 19.9286 3.66939 20 3.67559V4.7913C19.9571 4.782 19.859 4.76805 19.7054 4.74946C19.5555 4.72776 19.3966 4.71692 19.2288 4.71692C18.8289 4.71692 18.4719 4.78975 18.1577 4.93541C17.847 5.07797 17.6007 5.27632 17.4186 5.53045C17.2401 5.78148 17.1508 6.06816 17.1508 6.39047V10.9091H15.8869Z" fill="#0E6EBE"/>
<path d="M12.3081 10.9091V3.76858H13.572V10.9091H12.3081ZM12.9507 3.6694C12.7044 3.6694 12.4919 2.50566 12.3134 2.36C12.1385 2.21434 10.7942 2.03924 10.7942 1.83469C10.7942 1.63015 12.1385 1.45504 12.3134 1.30938C12.4919 1.16372 12.7044 0 12.9507 0C13.1971 0 13.4077 1.16372 13.5827 1.30938C13.7612 1.45504 15.1072 1.63015 15.1072 1.83469C15.1072 2.03924 13.7612 2.21434 13.5827 2.36C13.4077 2.50566 13.1971 3.6694 12.9507 3.6694Z" fill="#2596BE"/>
<path d="M1.88517 11.4545L1.25678 12L0 11.4545L5.01377 1.3884H6.3848L10.4122 10.9091H9.01975L5.74213 2.8946H5.65644L1.88517 11.4545ZM0 11.4545L12.2974 3.81816V4.90907L6.91228 8.18179L1.88517 11.4545L1.25678 12L0 11.4545Z" fill="#4C93E9"/>
</svg>
