<svg
      id="Layer_1"
      width="100px"
      height="80px"
      viewBox="0 0 65 61"
      enableBackground="new 0 0 65 61"
      fill="#000000"
    >
      <g id="SVGRepo_bgCarrier" strokeWidth="0"></g>
      <g
        id="SVGRepo_tracerCarrier"
        strokeLinecap="round"
        strokeLinejoin="round"
      ></g>
      <g id="SVGRepo_iconCarrier">
        {' '}
        <title>Train</title> <desc>Created with Sketch.</desc>{' '}
        <path
          id="Shape_5_"
          fill="none"
          stroke="#000000"
          strokeWidth="2"
          strokeLinejoin="round"
          d="M55,55.9 h7.7L58,42v-8c-0.3-1.1-1-5-1-5v-2h1c1.1,0,1-0.9,1-2v-1c0-1.1,0.1-2-1-2h-7c-1.1,0-1,0.9-1,2v1c0,1.1-0.1,2,1,2h1v5h-7v-3h-4v3h-5 v-3h-4v3h-5v-8h0.9c1.1,0,1-0.9,1-2v-3c0-1.1,0.1-2-1-2H4c-1.1,0-1,0.9-1,2v3c0,1.1-0.1,2,1,2h1v13.9H2c-1.1,0-1,0.9-1,2v9 c0,1.1-0.1,2,1,2h3"
        ></path>{' '}
        <path
          id="Shape"
          fill="none"
          stroke="#000000"
          strokeWidth="2"
          d="M39.8,54.9h4"
        ></path>{' '}
        <path
          id="Shape_1_"
          fill="none"
          stroke="#000000"
          strokeWidth="2"
          d="M22.103,54.9H28"
        ></path>{' '}
        <rect
          id="Rectangle-path"
          x="9"
          y="25"
          fill="none"
          stroke="#000000"
          strokeWidth="2"
          strokeLinejoin="round"
          width="5"
          height="11.9"
        >
          {' '}
        </rect>{' '}
        <rect
          id="Rectangle-path_1_"
          x="18"
          y="25"
          fill="none"
          stroke="#000000"
          strokeWidth="2"
          strokeLinejoin="round"
          width="5"
          height="7"
        >
          {' '}
        </rect>{' '}
        <path
          id="Shape_2_"
          fill="none"
          stroke="#000000"
          strokeWidth="2"
          strokeLinejoin="round"
          d=" M21.9,46.9h37.8"
        ></path>{' '}
        <path
          id="Shape_3_"
          fill="none"
          stroke="#000000"
          strokeWidth="2"
          d="M52.8,11.4h-0.1 c0.1-0.3,0.1-0.6,0.1-0.9c0-1.6-1.1-2.9-2.6-3.2c-0.2-1.8-1.8-3.2-3.8-3.2H46C45.2,2.3,43.3,1,41.1,1c-3,0-5.1,1.8-5.1,4.7 c0,3.7,3,5.1,5.2,5.1c0.6,1.1,1.7,1.8,3.1,1.8c0.7,0,1.4-0.2,2-0.6c0.6,1.1,1.7,1.9,3.1,1.9c0.6,0,1.2-0.1,1.6-0.4 c0.1,0.9,0.9,1.6,1.8,1.6c1,0,1.9-0.8,1.9-1.8C54.6,12.2,53.8,11.4,52.8,11.4L52.8,11.4z"
        ></path>{' '}
        <path
          id="Shape_4_"
          fill="none"
          stroke="#000000"
          strokeWidth="2"
          strokeLinejoin="round"
          d="M14,42 h44"
        ></path>{' '}
        <circle
          id="Oval"
          fill="none"
          stroke="#000000"
          strokeWidth="2"
          strokeLinejoin="round"
          cx="14"
          cy="51"
          r="9"
        >
          {' '}
        </circle>{' '}
        <circle
          id="Oval_1_"
          fill="none"
          stroke="#000000"
          strokeWidth="2"
          strokeLinejoin="round"
          cx="34"
          cy="54"
          r="6"
        >
          {' '}
        </circle>{' '}
        <circle
          id="Oval_2_"
          fill="none"
          stroke="#000000"
          strokeWidth="2"
          strokeLinejoin="round"
          cx="50"
          cy="54"
          r="6"
        >
          {' '}
        </circle>{' '}
      </g>
    </svg>
